<svg id="Capa_1" xmlns="http://www.w3.org/2000/svg" viewBox="0 0 200 200"><style>.st0{fill:#e7f5fb}.st1{fill:#f04e44;stroke:#46245e;stroke-width:2.1041;stroke-miterlimit:10}</style><title>ICONOS</title><circle class="st0" cx="100.1" cy="99.6" r="47.8"/><path class="st1" d="M110.2 100l11.2-11.2c2.8-2.8 2.8-7.4 0-10.2-2.8-2.8-7.4-2.8-10.2 0L100 89.8 88.8 78.6c-2.8-2.8-7.4-2.8-10.2 0-2.8 2.8-2.8 7.4 0 10.2L89.8 100l-11.2 11.2c-2.8 2.8-2.8 7.4 0 10.2 2.8 2.8 7.4 2.8 10.2 0l11.2-11.2 11.2 11.2c2.8 2.8 7.4 2.8 10.2 0s2.8-7.4 0-10.2L110.2 100z"/></svg>