<svg xmlns="http://www.w3.org/2000/svg" viewBox="0 0 200 200"><defs><style>.c{stroke-width:3px;fill:none;stroke:#e4b349;stroke-linecap:round;stroke-linejoin:round}</style></defs><title>ICONOS</title><circle cx="100.09" cy="99.61" r="47.77" fill="#e7f5fb"/><path fill="#b9cc2e" stroke="#46245e" stroke-miterlimit="10" stroke-width="3" d="M98.92 124.17a7 7 0 0 1-4.69-1.81l-17.06-15.51a7 7 0 0 1 9.39-10.33l11.93 10.85 37.57-40.67a7 7 0 0 1 10.26 9.47l-42.27 45.76a7 7 0 0 1-5.13 2.24z"/><path d="M38.16 43.83v7.38m-3.69-3.69h7.38m19-17.5v7.38m-3.69-3.69h7.38m91.38 130.81v7.38m-3.69-3.69h7.38m-33.45-17.96v7.38m-3.69-3.69h7.38" class="c"/></svg>