<svg xmlns="http://www.w3.org/2000/svg" viewBox="0 0 200 200"><style>.st6,.st7{stroke-width:3;stroke-miterlimit:10}.st6{stroke-linecap:round;stroke-linejoin:round;fill:none;stroke:#e4b349}.st7{fill:#b9cc2e;stroke:#46245e}</style><g id="Capa_2"><circle cx="100.1" cy="99.6" r="47.8" fill="#e7f5fb"/><path d="M45.2 64.8v7.4m-3.7-3.7h7.4m12-24.5v-6.6m-3.7 3.3h7.3m86.4 98.8v7.4m-3.7-3.7h7.4m-28.4 13.1v7.3m-3.7-3.7h7.3" class="st6"/><path fill="#e6e6e6" stroke="#46245e" stroke-miterlimit="10" stroke-width="3" d="M126.9 125H73.1c-6.6 0-12-5.4-12-12V87c0-6.6 5.4-12 12-12h53.8c6.6 0 12 5.4 12 12v26c0 6.6-5.4 12-12 12z"/><path fill="none" stroke="#46245e" stroke-miterlimit="10" stroke-width="3" d="M63.5 78.3l33.4 26.8c1.8 1.5 4.4 1.4 6.2 0l33.1-26.8"/><path d="M61.1 115.5l28.5-16.3m49.2 16.3l-28.5-16.3" class="st7"/></g></svg>