<?xml version="1.0" encoding="utf-8"?>
<!-- Generator: Adobe Illustrator 22.1.0, SVG Export Plug-In . SVG Version: 6.00 Build 0)  -->
<svg version="1.1" id="Capa_1" xmlns="http://www.w3.org/2000/svg" xmlns:xlink="http://www.w3.org/1999/xlink" x="0px" y="0px"
	 viewBox="0 0 200 200" style="enable-background:new 0 0 200 200;" xml:space="preserve">
<style type="text/css">
	.st0{fill:#E7F5FB;}
	.st1{fill:#F04E44;stroke:#46245E;stroke-width:2.1041;stroke-miterlimit:10;}
</style>
<title>ICONOS</title>
<circle class="st0" cx="100.1" cy="99.6" r="47.8"/>
<path class="st1" d="M110.2,100l11.2-11.2c2.8-2.8,2.8-7.4,0-10.2c-2.8-2.8-7.4-2.8-10.2,0L100,89.8L88.8,78.6
	c-2.8-2.8-7.4-2.8-10.2,0c-2.8,2.8-2.8,7.4,0,10.2L89.8,100l-11.2,11.2c-2.8,2.8-2.8,7.4,0,10.2c2.8,2.8,7.4,2.8,10.2,0l11.2-11.2
	l11.2,11.2c2.8,2.8,7.4,2.8,10.2,0s2.8-7.4,0-10.2L110.2,100z"/>
</svg>
